<mxfile host="app.diagrams.net" modified="2024-06-01T02:15:50.887Z" agent="Mozilla/5.0 (Windows NT 10.0; Win64; x64) AppleWebKit/537.36 (KHTML, like Gecko) Chrome/125.0.0.0 Safari/537.36 Edg/125.0.0.0" etag="2_86TwZJ_P2L1iW-5mnT" version="24.4.13" type="github">
  <diagram name="第 1 页" id="8iJwnNwklZCMlFQ-mZ7O">
    <mxGraphModel dx="1042" dy="577" grid="1" gridSize="10" guides="1" tooltips="1" connect="1" arrows="1" fold="1" page="1" pageScale="1" pageWidth="827" pageHeight="1169" math="0" shadow="0">
      <root>
        <mxCell id="0" />
        <mxCell id="1" parent="0" />
        <mxCell id="C_sefcSm5OmyHGAREux6-1" value="&lt;font style=&quot;font-size: 12px;&quot;&gt;用户&lt;/font&gt;" style="shape=umlActor;verticalLabelPosition=bottom;verticalAlign=top;html=1;outlineConnect=0;fontSize=12;" vertex="1" parent="1">
          <mxGeometry x="280" y="110" width="30" height="60" as="geometry" />
        </mxCell>
        <mxCell id="C_sefcSm5OmyHGAREux6-4" value="用户商城" style="rounded=0;whiteSpace=wrap;html=1;fontSize=12;" vertex="1" parent="1">
          <mxGeometry x="420" y="120" width="120" height="60" as="geometry" />
        </mxCell>
        <mxCell id="C_sefcSm5OmyHGAREux6-5" value="支付宝" style="rounded=0;whiteSpace=wrap;html=1;fontSize=12;" vertex="1" parent="1">
          <mxGeometry x="630" y="120" width="120" height="60" as="geometry" />
        </mxCell>
        <mxCell id="C_sefcSm5OmyHGAREux6-7" value="" style="endArrow=none;dashed=1;html=1;rounded=0;entryX=0.5;entryY=1;entryDx=0;entryDy=0;fontSize=12;" edge="1" parent="1" target="C_sefcSm5OmyHGAREux6-4">
          <mxGeometry width="50" height="50" relative="1" as="geometry">
            <mxPoint x="480" y="440" as="sourcePoint" />
            <mxPoint x="460" y="300" as="targetPoint" />
          </mxGeometry>
        </mxCell>
        <mxCell id="C_sefcSm5OmyHGAREux6-8" value="" style="endArrow=none;dashed=1;html=1;rounded=0;entryX=0.5;entryY=1;entryDx=0;entryDy=0;fontSize=12;" edge="1" parent="1">
          <mxGeometry width="50" height="50" relative="1" as="geometry">
            <mxPoint x="689.5" y="440" as="sourcePoint" />
            <mxPoint x="689.5" y="180" as="targetPoint" />
          </mxGeometry>
        </mxCell>
        <mxCell id="C_sefcSm5OmyHGAREux6-9" value="" style="endArrow=classic;html=1;rounded=0;fontSize=12;" edge="1" parent="1">
          <mxGeometry width="50" height="50" relative="1" as="geometry">
            <mxPoint x="300" y="230" as="sourcePoint" />
            <mxPoint x="480" y="230" as="targetPoint" />
          </mxGeometry>
        </mxCell>
        <mxCell id="C_sefcSm5OmyHGAREux6-10" value="" style="endArrow=classic;html=1;rounded=0;fontSize=12;" edge="1" parent="1">
          <mxGeometry width="50" height="50" relative="1" as="geometry">
            <mxPoint x="295" y="314.5" as="sourcePoint" />
            <mxPoint x="690" y="315" as="targetPoint" />
          </mxGeometry>
        </mxCell>
        <mxCell id="C_sefcSm5OmyHGAREux6-11" value="" style="endArrow=classic;html=1;rounded=0;fontSize=12;" edge="1" parent="1">
          <mxGeometry width="50" height="50" relative="1" as="geometry">
            <mxPoint x="295" y="390" as="sourcePoint" />
            <mxPoint x="690" y="390.5" as="targetPoint" />
          </mxGeometry>
        </mxCell>
        <mxCell id="C_sefcSm5OmyHGAREux6-12" value="" style="endArrow=classic;html=1;rounded=0;fontSize=12;" edge="1" parent="1">
          <mxGeometry width="50" height="50" relative="1" as="geometry">
            <mxPoint x="690" y="430" as="sourcePoint" />
            <mxPoint x="480" y="430" as="targetPoint" />
          </mxGeometry>
        </mxCell>
        <mxCell id="C_sefcSm5OmyHGAREux6-6" value="" style="rounded=0;whiteSpace=wrap;html=1;fontSize=12;" vertex="1" parent="1">
          <mxGeometry x="285" y="220" width="20" height="220" as="geometry" />
        </mxCell>
        <mxCell id="C_sefcSm5OmyHGAREux6-13" value="" style="endArrow=classic;html=1;rounded=0;fontSize=12;" edge="1" parent="1">
          <mxGeometry width="50" height="50" relative="1" as="geometry">
            <mxPoint x="305" y="255" as="sourcePoint" />
            <mxPoint x="305" y="295" as="targetPoint" />
            <Array as="points">
              <mxPoint x="385" y="255" />
              <mxPoint x="385" y="295" />
              <mxPoint x="355" y="295" />
            </Array>
          </mxGeometry>
        </mxCell>
        <mxCell id="C_sefcSm5OmyHGAREux6-14" value="" style="endArrow=classic;html=1;rounded=0;fontSize=12;" edge="1" parent="1">
          <mxGeometry width="50" height="50" relative="1" as="geometry">
            <mxPoint x="305" y="332" as="sourcePoint" />
            <mxPoint x="305" y="372" as="targetPoint" />
            <Array as="points">
              <mxPoint x="385" y="332" />
              <mxPoint x="385" y="372" />
              <mxPoint x="355" y="372" />
            </Array>
          </mxGeometry>
        </mxCell>
        <mxCell id="C_sefcSm5OmyHGAREux6-15" value="1、下单" style="text;html=1;align=center;verticalAlign=middle;whiteSpace=wrap;rounded=0;fontSize=12;" vertex="1" parent="1">
          <mxGeometry x="340" y="200" width="60" height="30" as="geometry" />
        </mxCell>
        <mxCell id="C_sefcSm5OmyHGAREux6-16" value="2、输入账号和密码" style="text;html=1;align=center;verticalAlign=middle;whiteSpace=wrap;rounded=0;fontSize=12;" vertex="1" parent="1">
          <mxGeometry x="384" y="260" width="86" height="30" as="geometry" />
        </mxCell>
        <mxCell id="C_sefcSm5OmyHGAREux6-17" value="3、登录" style="text;html=1;align=center;verticalAlign=middle;whiteSpace=wrap;rounded=0;fontSize=12;" vertex="1" parent="1">
          <mxGeometry x="530" y="280" width="60" height="30" as="geometry" />
        </mxCell>
        <mxCell id="C_sefcSm5OmyHGAREux6-18" value="4、输入支付宝密码" style="text;html=1;align=center;verticalAlign=middle;whiteSpace=wrap;rounded=0;fontSize=12;" vertex="1" parent="1">
          <mxGeometry x="384" y="340" width="86" height="30" as="geometry" />
        </mxCell>
        <mxCell id="C_sefcSm5OmyHGAREux6-19" value="5、确认支付" style="text;html=1;align=center;verticalAlign=middle;whiteSpace=wrap;rounded=0;fontSize=12;" vertex="1" parent="1">
          <mxGeometry x="530" y="360" width="80" height="30" as="geometry" />
        </mxCell>
        <mxCell id="C_sefcSm5OmyHGAREux6-20" value="6、返回同步参数" style="text;html=1;align=center;verticalAlign=middle;whiteSpace=wrap;rounded=0;fontSize=12;" vertex="1" parent="1">
          <mxGeometry x="530" y="400" width="100" height="30" as="geometry" />
        </mxCell>
      </root>
    </mxGraphModel>
  </diagram>
</mxfile>
